<svg width="57" height="68" viewBox="0 0 57 68" fill="none" xmlns="http://www.w3.org/2000/svg">
<path d="M47.424 1.75999C47.424 1.11999 47.744 0.799988 48.384 0.799988H55.68C56.32 0.799988 56.64 1.11999 56.64 1.75999V67.04C56.64 67.68 56.32 68 55.68 68H48.672C48.224 68 47.84 67.776 47.52 67.328L17.472 18.272C17.408 18.08 17.312 18.016 17.184 18.08C17.056 18.08 16.992 18.176 16.992 18.368L17.088 67.04C17.088 67.68 16.768 68 16.128 68H8.83199C8.19199 68 7.87199 67.68 7.87199 67.04V1.75999C7.87199 1.11999 8.19199 0.799988 8.83199 0.799988H15.936C16.384 0.799988 16.768 1.02399 17.088 1.47199L47.04 50.528C47.104 50.72 47.2 50.816 47.328 50.816C47.456 50.752 47.52 50.624 47.52 50.432L47.424 1.75999Z" fill="white"/>
<path d="M41.744 1.75999C41.744 1.11999 42.064 0.799988 42.704 0.799988H43.664C44.304 0.799988 44.624 1.11999 44.624 1.75999V67.04C44.624 67.68 44.304 68 43.664 68H42.608C42.16 68 41.776 67.776 41.456 67.328L4.20799 6.94399C4.14399 6.75199 4.04799 6.68799 3.91999 6.75199C3.79199 6.75199 3.72799 6.84799 3.72799 7.03999V67.04C3.72799 67.68 3.40799 68 2.76799 68H1.80799C1.16799 68 0.847992 67.68 0.847992 67.04V1.75999C0.847992 1.11999 1.16799 0.799988 1.80799 0.799988H2.95999C3.40799 0.799988 3.79199 1.02399 4.11199 1.47199L41.36 61.856C41.424 62.048 41.52 62.144 41.648 62.144C41.776 62.08 41.84 61.952 41.84 61.76L41.744 1.75999Z" fill="white"/>
</svg>
