<svg width="243" height="122" viewBox="0 0 243 122" fill="none" stroke="black" xmlns="http://www.w3.org/2000/svg">
    <path d="M136.828 18.4711C137.058 20.8386 137.144 23.4949 137.086 26.4399C137.086 27.0173 136.799 27.3061 136.224 27.3061H108.706C108.476 27.3061 108.361 27.4215 108.361 27.6525C108.361 29.6158 108.533 31.1172 108.878 32.1566C109.511 34.4664 110.776 36.2854 112.674 37.6135C114.629 38.8839 117.073 39.5191 120.006 39.5191C124.262 39.5191 127.54 37.7579 129.84 34.2354C130.128 33.658 130.502 33.5714 130.962 33.9756L135.879 37.267C136.281 37.6135 136.368 37.9888 136.138 38.393C134.527 40.9916 132.227 43.0415 129.237 44.5429C126.304 46.0442 122.968 46.7949 119.23 46.7949C115.032 46.7949 111.495 45.871 108.62 44.0232C105.744 42.1753 103.588 39.5479 102.15 36.141C100.77 32.7341 100.08 28.6053 100.08 23.7548C100.08 19.5394 100.396 16.3345 101.028 14.1402C102.064 10.1559 104.134 7.00877 107.239 4.69898C110.345 2.38919 114.112 1.23429 118.54 1.23429C124.348 1.23429 128.69 2.70678 131.566 5.65177C134.441 8.53901 136.195 12.8121 136.828 18.4711ZM118.54 8.42352C116.067 8.42352 114.025 9.05871 112.415 10.3291C110.805 11.5417 109.712 13.1875 109.137 15.2663C108.735 16.5367 108.476 18.1535 108.361 20.1168C108.361 20.3478 108.476 20.4633 108.706 20.4633H128.46C128.69 20.4633 128.805 20.3478 128.805 20.1168C128.69 18.2113 128.518 16.7965 128.288 15.8726C127.713 13.6205 126.562 11.8305 124.837 10.5023C123.169 9.11645 121.07 8.42352 118.54 8.42352Z" fill="white"/>
    <path d="M148.003 46.0154C147.543 46.0154 147.227 45.7844 147.055 45.3224L134.633 2.88002L134.546 2.62016C134.546 2.15821 134.834 1.92723 135.409 1.92723H142.138C142.655 1.92723 142.971 2.18708 143.086 2.70679L151.281 34.1488C151.339 34.2643 151.396 34.322 151.454 34.322C151.569 34.322 151.655 34.2643 151.713 34.1488L160.08 2.70679C160.195 2.18708 160.512 1.92723 161.029 1.92723H166.981C167.499 1.92723 167.815 2.18708 167.93 2.70679L176.47 34.0622C176.528 34.1777 176.585 34.2354 176.643 34.2354C176.758 34.2354 176.844 34.1777 176.902 34.0622L185.442 2.70679C185.557 2.18708 185.873 1.92723 186.391 1.92723L193.033 2.01385C193.32 2.01385 193.522 2.10047 193.637 2.2737C193.809 2.44693 193.867 2.67791 193.809 2.96664L181.301 45.3224C181.128 45.7844 180.812 46.0154 180.352 46.0154H173.624C173.164 46.0154 172.847 45.7844 172.675 45.3224L164.221 16.0458C164.163 15.9303 164.077 15.8726 163.962 15.8726C163.905 15.8726 163.847 15.9303 163.79 16.0458L155.767 45.2358C155.652 45.7555 155.336 46.0154 154.818 46.0154H148.003Z" fill="white"/>
    <path d="M207.261 46.5351C203.81 46.5351 200.762 46.0154 198.117 44.976C195.529 43.9365 193.516 42.5218 192.078 40.7317C190.641 38.8839 189.922 36.8628 189.922 34.6685V33.7157C189.922 33.1383 190.209 32.8496 190.785 32.8496H196.995C197.571 32.8496 197.858 33.1383 197.858 33.7157V34.1488C197.858 35.7657 198.721 37.1804 200.446 38.393C202.229 39.6057 204.472 40.212 207.175 40.212C209.762 40.212 211.861 39.6634 213.472 38.5663C215.082 37.4114 215.887 35.9678 215.887 34.2354C215.887 32.5608 215.139 31.3193 213.644 30.5109C212.149 29.6447 209.734 28.7497 206.398 27.8258C203.12 26.9018 200.36 25.9779 198.117 25.054C195.932 24.0723 194.063 22.7153 192.51 20.983C191.015 19.1929 190.267 16.912 190.267 14.1402C190.267 10.2713 191.762 7.21087 194.753 4.95883C197.801 2.64904 201.826 1.49415 206.829 1.49415C210.165 1.49415 213.098 2.04272 215.628 3.13987C218.216 4.17927 220.2 5.65177 221.58 7.55734C222.961 9.46292 223.651 11.5995 223.651 13.967V14.2269C223.651 14.8043 223.363 15.093 222.788 15.093H216.75C216.175 15.093 215.887 14.8043 215.887 14.2269V13.967C215.887 12.2924 215.053 10.9065 213.385 9.80939C211.775 8.6545 209.561 8.07705 206.743 8.07705C204.213 8.07705 202.143 8.56788 200.532 9.54954C198.98 10.5312 198.203 11.8593 198.203 13.5339C198.203 15.2085 198.951 16.4789 200.446 17.3451C201.999 18.2113 204.472 19.1352 207.865 20.1168C211.2 21.0407 213.961 21.9647 216.146 22.8886C218.389 23.7548 220.287 25.0829 221.839 26.873C223.392 28.6053 224.168 30.8862 224.168 33.7157C224.168 37.6424 222.616 40.7606 219.51 43.0704C216.462 45.3802 212.379 46.5351 207.261 46.5351Z" fill="white"/>
    <path d="M130.444 62.1334C130.444 61.5559 130.732 61.2672 131.307 61.2672H132.169C132.745 61.2672 133.032 61.5559 133.032 62.1334V103.796C133.032 104.374 132.745 104.662 132.169 104.662H131.307C130.732 104.662 130.444 104.374 130.444 103.796V98.9457C130.444 98.7724 130.387 98.6858 130.272 98.6858C130.214 98.6858 130.128 98.7436 130.013 98.859C128.805 100.88 127.08 102.468 124.837 103.623C122.652 104.72 120.121 105.269 117.246 105.269C112.933 105.269 109.425 103.969 106.722 101.371C104.076 98.7724 102.754 95.3077 102.754 90.9769V62.1334C102.754 61.5559 103.041 61.2672 103.616 61.2672H104.479C105.054 61.2672 105.342 61.5559 105.342 62.1334V90.4572C105.342 94.2106 106.463 97.2133 108.706 99.4654C110.949 101.717 113.91 102.843 117.591 102.843C121.502 102.843 124.607 101.717 126.907 99.4654C129.265 97.1556 130.444 94.1528 130.444 90.4572V62.1334Z" fill="white"/>
    <path d="M167.035 44.8966C167.035 44.3191 167.323 44.0304 167.898 44.0304H168.76C169.336 44.0304 169.623 44.3191 169.623 44.8966V103.796C169.623 104.374 169.336 104.662 168.76 104.662H167.898C167.323 104.662 167.035 104.374 167.035 103.796V98.7724C167.035 98.5992 166.978 98.5126 166.863 98.5126C166.805 98.4548 166.719 98.4837 166.604 98.5992C165.396 100.736 163.728 102.41 161.601 103.623C159.473 104.778 157.029 105.355 154.268 105.355C150.415 105.355 147.137 104.316 144.434 102.237C141.789 100.158 140.064 97.3865 139.259 93.9219C138.971 92.6515 138.77 91.2656 138.655 89.7642C138.597 88.2629 138.568 86.0397 138.568 83.0947C138.568 80.092 138.597 77.8111 138.655 76.252C138.712 74.6929 138.885 73.2781 139.172 72.0077C139.977 68.543 141.703 65.7713 144.348 63.6925C147.051 61.6137 150.358 60.5743 154.268 60.5743C157.029 60.5743 159.473 61.1806 161.601 62.3932C163.728 63.6059 165.396 65.2805 166.604 67.417C166.719 67.5325 166.805 67.5902 166.863 67.5902C166.978 67.5325 167.035 67.417 167.035 67.2438V44.8966ZM166.518 93.0557C166.69 92.074 166.805 91.0058 166.863 89.8509C166.978 88.6382 167.035 86.3573 167.035 83.0081C167.035 79.7166 166.978 77.4935 166.863 76.3386C166.805 75.1259 166.69 73.971 166.518 72.8739C166 70.0444 164.677 67.7057 162.55 65.8579C160.422 63.9523 157.719 62.9995 154.441 62.9995C151.163 62.9995 148.374 63.9523 146.073 65.8579C143.773 67.7057 142.335 70.0444 141.76 72.8739C141.53 73.971 141.358 75.1259 141.243 76.3386C141.185 77.4935 141.156 79.6878 141.156 82.9215C141.156 86.2707 141.185 88.5516 141.243 89.7642C141.358 90.9191 141.53 92.0163 141.76 93.0557C142.22 95.9429 143.629 98.3105 145.987 100.158C148.345 102.006 151.163 102.93 154.441 102.93C157.719 102.93 160.393 102.006 162.463 100.158C164.591 98.2527 165.943 95.8852 166.518 93.0557Z" fill="white"/>
    <path d="M203.626 62.1334C203.626 61.5559 203.914 61.2672 204.489 61.2672H205.352C205.927 61.2672 206.214 61.5559 206.214 62.1334V104.403C206.214 110.35 204.489 114.797 201.038 117.742C197.588 120.744 192.441 122.159 185.597 121.986C185.022 121.986 184.735 121.697 184.735 121.12V120.34C184.735 119.763 185.051 119.474 185.684 119.474C191.837 119.589 196.351 118.377 199.227 115.836C202.16 113.295 203.626 109.484 203.626 104.403V98.5992C203.626 98.426 203.569 98.3393 203.454 98.3393C203.396 98.2816 203.31 98.3105 203.195 98.426C201.93 100.563 200.233 102.237 198.105 103.45C196.035 104.662 193.591 105.269 190.773 105.269C186.978 105.269 183.728 104.258 181.025 102.237C178.38 100.158 176.626 97.3865 175.763 93.9219C175.131 91.6121 174.814 88.003 174.814 83.0947C174.814 77.9554 175.131 74.2309 175.763 71.9211C176.626 68.5719 178.38 65.8579 181.025 63.7791C183.671 61.6425 186.891 60.5743 190.687 60.5743C193.505 60.5743 195.978 61.1806 198.105 62.3932C200.291 63.5481 201.987 65.1938 203.195 67.3304C203.31 67.4459 203.396 67.5036 203.454 67.5036C203.569 67.4459 203.626 67.3304 203.626 67.1572V62.1334ZM203.281 92.7092C203.396 91.7853 203.483 90.6593 203.54 89.3312C203.598 88.003 203.626 85.8953 203.626 83.0081C203.626 80.1209 203.598 78.0132 203.54 76.685C203.483 75.3569 203.396 74.202 203.281 73.2204C202.821 70.2754 201.498 67.8501 199.313 65.9445C197.128 63.9812 194.367 62.9995 191.032 62.9995C187.754 62.9995 184.965 63.9523 182.664 65.8579C180.422 67.7635 178.926 70.2176 178.179 73.2204C177.661 75.2992 177.402 78.504 177.402 82.8349C177.402 87.5699 177.661 90.8614 178.179 92.7092C178.811 95.6542 180.278 98.1084 182.578 100.072C184.878 101.977 187.696 102.93 191.032 102.93C194.425 102.93 197.185 101.948 199.313 99.9851C201.498 98.0217 202.821 95.5965 203.281 92.7092Z" fill="white"/>
    <path d="M226.955 102.93C230.003 102.93 232.648 102.237 234.891 100.851C237.134 99.4076 238.744 97.4732 239.722 95.0479C239.895 94.5282 240.24 94.3261 240.757 94.4416L241.447 94.6148C242.022 94.788 242.224 95.1345 242.051 95.6542C240.958 98.5992 239.061 100.967 236.358 102.757C233.712 104.489 230.549 105.355 226.869 105.355C222.958 105.355 219.651 104.345 216.949 102.324C214.303 100.245 212.52 97.502 211.6 94.0951C211.255 92.767 211.025 91.3233 210.91 89.7642C210.853 88.1474 210.824 85.8376 210.824 82.8349C210.824 80.1209 210.853 77.9843 210.91 76.4252C211.025 74.8083 211.226 73.3647 211.514 72.0943C212.319 68.6297 214.073 65.8579 216.776 63.7791C219.536 61.6425 222.901 60.5743 226.869 60.5743C231.009 60.5743 234.46 61.6714 237.22 63.8657C240.038 66.0023 241.792 68.8895 242.482 72.5274C242.712 73.6246 242.856 74.9238 242.914 76.4252C242.971 77.9266 243 79.9765 243 82.575C243 83.2102 242.712 83.5278 242.137 83.5278H213.757C213.527 83.5278 213.412 83.6433 213.412 83.8743C213.412 85.8953 213.441 87.7143 213.498 89.3312C213.556 90.8903 213.671 92.0163 213.843 92.7092C214.418 95.7697 215.856 98.2527 218.156 100.158C220.514 102.006 223.447 102.93 226.955 102.93ZM226.869 62.9995C223.418 62.9995 220.514 63.9523 218.156 65.8579C215.856 67.7057 214.418 70.131 213.843 73.1337C213.556 74.4041 213.412 77.0026 213.412 80.9293C213.412 81.1603 213.527 81.2758 213.757 81.2758H240.067C240.297 81.2758 240.412 81.1603 240.412 80.9293C240.412 77.0026 240.268 74.433 239.981 73.2204C239.348 70.1599 237.853 67.7057 235.495 65.8579C233.195 63.9523 230.319 62.9995 226.869 62.9995Z" fill="white"/>
    <path d="M78.0149 1.50806C78.0149 0.502688 78.5509 0 79.6229 0H91.8437C92.9157 0 93.4517 0.502688 93.4517 1.50806V104.057C93.4517 105.062 92.9157 105.565 91.8437 105.565H80.1053C79.3549 105.565 78.7117 105.213 78.1757 104.509L27.8452 27.4468C27.738 27.1452 27.5772 27.0447 27.3628 27.1452C27.1484 27.1452 27.0412 27.296 27.0412 27.5976L27.202 104.057C27.202 105.062 26.666 105.565 25.594 105.565H13.3732C12.3012 105.565 11.7652 105.062 11.7652 104.057V1.50806C11.7652 0.502688 12.3012 0 13.3732 0H25.2724C26.0228 0 26.666 0.351884 27.202 1.05565L77.3717 78.1178C77.4789 78.4195 77.6397 78.5703 77.8541 78.5703C78.0685 78.4697 78.1757 78.2686 78.1757 77.967L78.0149 1.50806Z" fill="white"/>
    <path d="M68.5009 1.50806C68.5009 0.502688 69.0369 0 70.1089 0H71.7169C72.7889 0 73.3249 0.502688 73.3249 1.50806V104.057C73.3249 105.062 72.7889 105.565 71.7169 105.565H69.9481C69.1977 105.565 68.5545 105.213 68.0185 104.509L5.628 9.65163C5.5208 9.35001 5.36 9.24947 5.14561 9.35002C4.9312 9.35002 4.824 9.50082 4.824 9.80243V104.057C4.824 105.062 4.288 105.565 3.216 105.565H1.608C0.536 105.565 0 105.062 0 104.057V1.50806C0 0.502688 0.536 0 1.608 0H3.5376C4.288 0 4.9312 0.351884 5.4672 1.05565L67.8577 95.913C67.9649 96.2146 68.1257 96.3655 68.3401 96.3655C68.5545 96.2649 68.6617 96.0638 68.6617 95.7622L68.5009 1.50806Z" fill="white"/>
</svg>
